HIERARCHY
ROOT Hips
{
	OFFSET 0.00000 0.00000 0.00000
	CHANNELS 6 Xposition Yposition Zposition Zrotation Yrotation Xrotation 
	JOINT LHipJoint
	{
		OFFSET 0 0 0
		CHANNELS 3 Zrotation Yrotation Xrotation
		JOINT LeftHip
		{
			OFFSET 1.36337 -1.57426 1.11036
			CHANNELS 3 Zrotation Yrotation Xrotation
			JOINT LeftKnee
			{
				OFFSET 2.38468 -6.55187 0.00000
				CHANNELS 3 Zrotation Yrotation Xrotation
				JOINT LeftAnkle
				{
					OFFSET 2.37166 -6.51609 0.00000
					CHANNELS 3 Zrotation Yrotation Xrotation
					JOINT LeftToe
					{
						OFFSET 0.29078 -0.79891 2.01393
						CHANNELS 3 Zrotation Yrotation Xrotation
						End Site
						{
							OFFSET 0.00000 -0.00000 1.07924
						}
					}
				}
			}
		}
	}
	JOINT RHipJoint
	{
		OFFSET 0 0 0
		CHANNELS 3 Zrotation Yrotation Xrotation
		JOINT RightHip
		{
			OFFSET -1.36349 -1.57426 1.11036
			CHANNELS 3 Zrotation Yrotation Xrotation
			JOINT RightKnee
			{
				OFFSET -2.29562 -6.30717 0.00000
				CHANNELS 3 Zrotation Yrotation Xrotation
				JOINT RightAnkle
				{
					OFFSET -2.40985 -6.62100 0.00000
					CHANNELS 3 Zrotation Yrotation Xrotation
					JOINT RightToe
					{
						OFFSET -0.23197 -0.63733 1.92232
						CHANNELS 3 Zrotation Yrotation Xrotation
						End Site
						{
							OFFSET -0.00000 -0.00000 1.01562
						}
					}
				}
			}
		}
	}
	JOINT lowerback
	{
		OFFSET 0 0 0
		CHANNELS 3 Zrotation Yrotation Xrotation
		JOINT Chest
		{
			OFFSET -0.08565 2.03602 -0.24562
			CHANNELS 3 Zrotation Yrotation Xrotation
			JOINT Chest2
			{
				OFFSET -0.00036 2.05693 0.00216
				CHANNELS 3 Zrotation Yrotation Xrotation
				JOINT lowerneck
				{
					OFFSET 0 0 0
					CHANNELS 3 Zrotation Yrotation Xrotation
					JOINT Neck
					{
						OFFSET -0.03664 1.69515 0.31789
						CHANNELS 3 Zrotation Yrotation Xrotation
						JOINT Head
						{
							OFFSET 0.00932 1.70181 -0.46013
							CHANNELS 3 Zrotation Yrotation Xrotation
							End Site
							{
								OFFSET 0.01243 1.77620 -0.19377
							}
						}
					}
				}
				JOINT LeftCollar
				{
					OFFSET 0 0 0
					CHANNELS 3 Zrotation Yrotation Xrotation
					JOINT LeftShoulder
					{
						OFFSET 3.74344 0.81315 -0.36647
CHANNELS 3 Zrotation Xrotation Yrotation
						JOINT LeftElbow
						{
OFFSET 0 -4.971850 -0.000000
CHANNELS 3 Zrotation Xrotation Yrotation
							JOINT LeftWrist
							{
OFFSET 0 -3.358110 0.000000
CHANNELS 3 Zrotation Xrotation Yrotation
								JOINT lhand
								{
									OFFSET 0 0 0
CHANNELS 3 Zrotation Xrotation Yrotation
									JOINT LFingers
									{
OFFSET 0 -0.622780 0.000000
CHANNELS 3 Zrotation Xrotation Yrotation
										End Site
										{
OFFSET 0 -0.502100 0.000000
										}
									}
								}
								JOINT LThumb
								{
OFFSET 0 0.000000 0.000000
CHANNELS 3 Zrotation Xrotation Yrotation
									End Site
									{
OFFSET 0 -0.509760 0.509760
									}
								}
							}
						}
					}
				}
				JOINT RightCollar
				{
					OFFSET 0 0 0
					CHANNELS 3 Zrotation Yrotation Xrotation
					JOINT RightShoulder
					{
						OFFSET -3.75385 0.50666 -0.06525
CHANNELS 3 Zrotation Xrotation Yrotation
						JOINT RightElbow
						{
OFFSET 0 -4.964930 -0.000000
CHANNELS 3 Zrotation Xrotation Yrotation
							JOINT RightWrist
							{
OFFSET 0 -3.349290 0.000000
CHANNELS 3 Zrotation Xrotation Yrotation
								JOINT rhand
								{
									OFFSET 0 0 0
CHANNELS 3 Zrotation Xrotation Yrotation
									JOINT RFingers
									{
OFFSET 0 -0.638040 0.000000
CHANNELS 3 Zrotation Xrotation Yrotation
										End Site
										{
OFFSET 0 -0.514410 0.000000
										}
									}
								}
								JOINT RThumb
								{
OFFSET 0 0.000000 0.000000
CHANNELS 3 Zrotation Xrotation Yrotation
									End Site
									{
OFFSET 0 -0.522260 0.522260
									}
								}
							}
						}
					}
				}
			}
		}
	}
}
MOTION
Frames: 11
Frame Time: 0.008333333333333333
-26.600300 16.474700 -14.177700 162.751000 74.896400 169.264000 0.000000 0.000000 0.000000 -25.059800 -7.783700 -7.824400 2.068000 9.006200 25.814800 1.672000 0.886200 -24.787100 0.096400 2.002400 5.512400 0.000000 0.000000 0.000000 12.930000 0.883300 -10.544800 -2.012700 -8.892500 25.459600 -1.857300 -4.631700 -27.745500 -0.201500 -2.890600 7.974400 -7.316700 0.004900 -9.023100 -0.642400 0.878800 0.912400 3.566000 0.214900 5.945600 0.603300 4.905000 -19.463000 -3.757900 9.555700 32.417000 0.195100 3.985100 14.716300 -0.000000 0.000000 0.000000 -3.009300 -2.378200 -36.942300 11.163200 -18.537900 1.827500 20.831500 -7.425100 7.911600 0.000000 0.000000 0.000000 -7.125000 0.000000 0.000000 -4.358100 21.532300 -2.461400 -0.000000 0.000000 0.000000 -0.386500 2.843900 21.304400 -15.545600 -24.900600 -3.452400 -10.063300 -4.372500 30.953300 0.000000 0.000000 0.000000 7.125000 0.000000 -0.000000 24.577500 59.605200 -9.098600
-26.635827 16.503679 -14.159430 169.789075 76.210257 176.550651 0.000000 0.000000 0.000000 -22.749475 -8.087877 -8.965650 2.261580 9.390935 27.025979 1.815553 1.100635 -25.897587 0.066895 1.668879 4.591341 0.000000 0.000000 0.000000 15.356530 3.228882 -9.743979 -1.782471 -8.397403 23.927881 -1.708332 -6.220888 -27.593326 -0.269614 -3.339901 9.226623 -4.778814 0.353877 -9.855899 -0.575985 1.110328 1.303645 2.257955 0.376645 6.841779 -0.990440 3.199441 -20.723154 -2.730425 7.019320 31.802175 0.423943 2.792918 14.520122 0.000000 0.000000 0.000000 -2.312251 -3.479557 -37.836272 11.320664 -18.777839 1.878090 21.783760 -9.793087 6.398262 0.000000 0.000000 0.000000 -7.125000 0.000000 0.000000 -3.653448 23.099228 -1.934464 0.000000 0.000000 0.000000 0.362833 1.558874 21.691527 -15.322535 -24.593486 -3.359029 -10.321270 -5.226988 29.811566 0.000000 0.000000 0.000000 7.125000 0.000000 0.000000 23.402197 58.630525 -8.081215
-26.655743 16.520174 -14.149713 168.933414 77.854493 175.840980 0.000000 0.000000 0.000000 -22.771021 -7.507366 -9.271229 2.280787 9.427965 27.143521 1.876701 1.804360 -26.595384 0.062111 1.607903 4.423284 0.000000 0.000000 0.000000 15.316530 4.065659 -9.854290 -1.715173 -8.245793 23.463250 -1.607911 -5.922624 -26.716754 -0.208542 -2.940231 8.112323 -4.789277 0.676560 -9.964372 -0.581134 1.549337 1.345924 2.328263 0.588440 6.916069 -2.032965 1.945388 -21.477893 -2.343142 5.366212 31.722461 0.461531 1.982442 14.585885 0.000000 0.000000 0.000000 -2.334900 -3.769637 -36.500327 11.066147 -18.389610 1.796723 21.361141 -8.188532 7.210433 0.000000 0.000000 0.000000 -7.125000 0.000000 0.000000 -3.967948 22.249974 -2.175139 0.000000 0.000000 0.000000 0.365611 1.313174 22.766191 -15.396044 -24.694929 -3.389681 -11.297437 -4.378767 30.047305 0.000000 0.000000 0.000000 7.125000 0.000000 0.000000 22.582424 59.063496 -8.015454
-26.648283 16.530830 -14.158761 167.312479 77.896279 174.156995 0.000000 0.000000 0.000000 -23.200179 -7.494217 -8.891303 2.199531 9.269884 26.643354 1.852954 1.962593 -26.494390 0.086841 1.897321 5.222063 0.000000 0.000000 0.000000 14.923590 3.523872 -10.026490 -1.777778 -8.387083 23.896071 -1.659425 -5.243759 -26.699405 -0.214127 -2.978893 8.219866 -5.004949 0.680794 -9.537987 -0.739752 1.559115 1.063025 2.271166 0.609280 6.370713 -2.881610 0.886701 -21.599659 -1.672094 3.884863 31.906478 0.607635 1.333651 14.653701 0.000000 0.000000 0.000000 -2.220968 -3.129961 -36.532006 11.055813 -18.373831 1.793471 21.744713 -7.676320 7.293938 0.000000 0.000000 0.000000 -7.125000 0.000000 0.000000 -3.688187 22.139392 -2.030403 0.000000 0.000000 0.000000 0.481818 1.790662 22.936070 -15.459051 -24.781748 -3.416032 -11.809830 -4.451724 30.084454 0.000000 0.000000 0.000000 7.125000 0.000000 0.000000 22.081781 59.213146 -7.906291
-26.663153 16.528226 -14.161269 167.518628 78.255883 174.442065 0.000000 0.000000 0.000000 -23.102719 -7.401672 -9.021968 2.198852 9.268587 26.639243 1.877654 2.057038 -26.703596 0.083927 1.868226 5.141677 0.000000 0.000000 0.000000 14.990728 4.028811 -10.165656 -1.782335 -8.397169 23.926960 -1.617940 -5.448545 -26.517795 -0.273270 -3.362556 9.289861 -4.923650 0.618209 -9.704481 -0.662774 1.473781 1.171796 2.298874 0.560390 6.587218 -3.749226 0.231577 -22.108593 -0.774702 2.886667 31.739322 0.937071 0.911133 14.662642 0.000000 0.000000 0.000000 -2.492237 -3.775139 -34.973741 10.670998 -17.782246 1.674055 21.332227 -6.024299 7.931228 0.000000 0.000000 0.000000 -7.125000 0.000000 0.000000 -3.994821 21.481844 -2.259863 0.000000 0.000000 0.000000 0.326397 1.422866 23.568359 -15.390035 -24.686600 -3.387160 -11.767409 -4.646824 30.345475 0.000000 0.000000 0.000000 7.125000 0.000000 0.000000 22.328546 59.443203 -8.124281
-26.664940 16.524153 -14.161595 167.065154 78.237551 173.953098 0.000000 0.000000 0.000000 -23.216136 -7.491728 -8.999505 2.199052 9.268948 26.640341 1.846647 2.287110 -26.584742 0.086575 1.897358 5.222202 0.000000 0.000000 0.000000 14.886651 4.189349 -10.083386 -1.784639 -8.402264 23.942706 -1.655535 -5.435686 -26.777949 -0.217635 -3.003185 8.287653 -5.285807 0.530840 -9.607089 -0.481603 1.380188 1.147552 2.676905 0.500080 6.501458 -4.457157 -0.402690 -22.443680 -0.112660 1.996606 31.883761 1.167062 0.529995 14.801998 0.000000 0.000000 0.000000 -2.644648 -3.808238 -34.728778 10.619326 -17.702477 1.658309 20.308540 -5.616877 8.999907 0.000000 0.000000 0.000000 -7.125000 0.000000 0.000000 -4.744324 20.409620 -2.801498 0.000000 0.000000 0.000000 -0.018500 1.380160 23.375921 -15.287719 -24.545368 -3.344501 -11.206782 -5.872333 29.022442 0.000000 0.000000 0.000000 7.125000 0.000000 0.000000 21.909309 58.101693 -7.250341
-26.660889 16.524931 -14.166273 167.051978 78.177791 173.903644 0.000000 0.000000 0.000000 -23.270445 -7.630715 -8.864695 2.186391 9.244004 26.561496 1.827744 2.577319 -26.577111 0.086611 1.896620 5.220102 0.000000 0.000000 0.000000 14.838907 3.929529 -10.160804 -1.804041 -8.445349 24.075171 -1.661695 -5.268930 -26.729436 -0.204489 -2.911742 8.033057 -5.206407 0.399436 -9.654340 -0.503440 1.203084 1.230747 2.584920 0.411073 6.633879 -4.667215 -0.787649 -22.832109 0.195691 1.381273 31.768007 1.211884 0.275500 14.846756 0.000000 0.000000 0.000000 -2.603172 -3.942173 -34.693939 10.668845 -17.778873 1.673436 20.535541 -5.645271 8.792217 0.000000 0.000000 0.000000 -7.125000 0.000000 0.000000 -4.579088 20.614946 -2.682058 0.000000 0.000000 0.000000 -0.023594 1.200126 23.638072 -15.225458 -24.459313 -3.318742 -11.573803 -6.085852 28.525735 0.000000 0.000000 0.000000 7.125000 0.000000 0.000000 21.181962 57.721316 -6.798326
-26.657166 16.519442 -14.167834 166.513159 78.055444 173.382855 0.000000 0.000000 0.000000 -23.420382 -7.642352 -8.817478 2.143655 9.159110 26.294393 1.774186 2.684840 -26.248887 0.044719 1.362455 3.746713 0.000000 0.000000 0.000000 14.685877 3.968481 -10.305085 -1.851522 -8.549767 24.396716 -1.678781 -5.278439 -26.855321 -0.218829 -3.011244 8.309998 -5.388219 0.272991 -9.718553 -0.523301 1.062206 1.214566 2.646148 0.335767 6.662964 -4.880108 -1.114843 -23.207569 0.819971 0.784002 32.107789 1.400542 0.079829 15.097680 0.000000 0.000000 0.000000 -2.441185 -3.919223 -35.367201 10.962961 -18.231468 1.764339 19.959350 -4.803615 6.159545 0.000000 0.000000 0.000000 -7.125000 0.000000 0.000000 -5.001275 23.435073 -2.609161 0.000000 0.000000 0.000000 0.117148 1.396041 23.249795 -15.319164 -24.588881 -3.357644 -10.877330 -5.784364 28.962513 0.000000 0.000000 0.000000 7.125000 0.000000 0.000000 22.201778 57.975389 -7.284903
-26.648732 16.521902 -14.175319 165.768466 77.926482 172.643896 0.000000 0.000000 0.000000 -23.631762 -7.551749 -8.735127 2.152488 9.176646 26.349499 1.810134 2.507942 -26.424534 0.085502 1.884741 5.187283 0.000000 0.000000 0.000000 14.459759 3.542596 -10.326389 -1.839563 -8.523511 24.315878 -1.756672 -4.838313 -27.163714 -0.251810 -3.227262 8.912238 -5.472142 0.145011 -9.667934 -0.557332 0.898854 1.133171 2.631778 0.258298 6.560969 -5.280039 -1.396554 -23.543859 1.503346 0.284510 32.189194 1.660854 -0.086961 15.225817 0.000000 0.000000 0.000000 -2.383581 -3.809051 -35.356336 10.972425 -18.245944 1.767247 20.170924 -5.243532 6.763884 0.000000 0.000000 0.000000 -7.125000 0.000000 0.000000 -4.840211 22.785772 -2.596887 0.000000 0.000000 0.000000 0.154507 1.481256 22.917994 -15.146860 -24.350330 -3.286236 -10.982745 -5.707821 28.246997 0.000000 0.000000 0.000000 7.125000 0.000000 0.000000 21.589117 57.337698 -6.734986
-26.649552 16.518692 -14.175308 168.341144 78.169400 175.202175 0.000000 0.000000 0.000000 -22.991577 -7.567546 -8.952894 2.219808 9.309716 26.769003 1.861012 2.282062 -26.682108 0.082774 1.851872 5.096666 0.000000 0.000000 0.000000 15.121171 4.154449 -10.005741 -1.772102 -8.374330 23.856871 -1.660060 -5.518470 -26.855874 -0.219274 -3.013976 8.317677 -4.979156 0.047013 -9.659801 -0.229571 0.681160 1.097368 2.666861 0.162310 6.535990 -5.626535 -1.447132 -23.967079 1.903908 0.221010 32.277837 1.880148 -0.105062 15.363929 0.000000 0.000000 0.000000 -2.549481 -3.884544 -35.164477 10.914894 -18.157737 1.749314 19.983231 -5.179160 6.676542 0.000000 0.000000 0.000000 -7.125000 0.000000 0.000000 -4.978679 22.887043 -2.660155 0.000000 0.000000 0.000000 -0.046446 1.626195 23.400711 -15.173686 -24.387437 -3.297293 -11.640304 -4.949486 29.241334 0.000000 0.000000 0.000000 7.125000 0.000000 0.000000 21.626420 58.398046 -7.307759
-26.651093 16.511440 -14.178462 166.846848 78.465490 173.508721 0.000000 0.000000 0.000000 -23.348575 -7.372006 -8.602388 2.172339 9.216149 26.473846 1.832614 2.662579 -26.647780 0.100954 2.048732 5.640349 0.000000 0.000000 0.000000 14.809423 3.863124 -10.134407 -1.832430 -8.507842 24.267579 -1.664321 -5.080841 -26.645036 -0.200670 -2.876802 7.936486 -5.198568 0.062793 -9.751661 -0.239151 0.742183 1.351836 2.792034 0.170663 6.853123 -5.755505 -1.530235 -24.399955 2.189214 0.059216 32.326569 1.993745 -0.153616 15.491203 0.000000 0.000000 0.000000 -2.484627 -4.090825 -35.427710 10.946848 -18.206696 1.759263 20.242967 -4.753930 6.077825 0.000000 0.000000 0.000000 -7.125000 0.000000 0.000000 -4.792405 23.509692 -2.491313 0.000000 0.000000 0.000000 0.101363 1.066952 22.535343 -14.935305 -24.055928 -3.199506 -11.608272 -4.280330 28.909567 0.000000 0.000000 0.000000 7.125000 0.000000 0.000000 21.419063 58.084116 -7.070008
